<svg viewBox="0 0 400 200" xmlns="http://www.w3.org/2000/svg" style="width:100%;border-radius:10px;margin-bottom:1.5rem"><rect width="400" height="200" fill="#f0fdf4"/><rect x="30" y="25" width="340" height="150" rx="10" fill="white" stroke="#86efac" stroke-width="2"/><rect x="55" y="45" width="130" height="110" rx="7" fill="#f0fdf4" stroke="#86efac" stroke-width="1.5"/><text x="120" y="68" font-family="Arial" font-size="10" fill="#166534" text-anchor="middle" font-weight="bold">1η ΜΗΝΑ</text><rect x="65" y="75" width="110" height="12" rx="3" fill="#86efac" opacity=".6"/><rect x="65" y="93" width="90" height="12" rx="3" fill="#86efac" opacity=".6"/><rect x="65" y="111" width="100" height="12" rx="3" fill="#86efac" opacity=".6"/><rect x="65" y="129" width="80" height="12" rx="3" fill="#86efac" opacity=".6"/><rect x="205" y="45" width="130" height="110" rx="7" fill="#f0fdf4" stroke="#86efac" stroke-width="1.5"/><text x="270" y="68" font-family="Arial" font-size="10" fill="#166534" text-anchor="middle" font-weight="bold">15η ΜΗΝΑ</text><rect x="215" y="75" width="110" height="12" rx="3" fill="#86efac" opacity=".6"/><rect x="215" y="93" width="90" height="12" rx="3" fill="#86efac" opacity=".6"/><rect x="215" y="111" width="100" height="12" rx="3" fill="#86efac" opacity=".6"/><rect x="215" y="129" width="80" height="12" rx="3" fill="#86efac" opacity=".6"/><circle cx="120" cy="155" r="10" fill="#16a34a"/><text x="120" y="160" font-family="Arial" font-size="12" fill="white" text-anchor="middle">✓</text><circle cx="270" cy="155" r="10" fill="#16a34a"/><text x="270" y="160" font-family="Arial" font-size="12" fill="white" text-anchor="middle">✓</text></svg>
