<svg viewBox="0 0 400 200" xmlns="http://www.w3.org/2000/svg" style="width:100%;border-radius:10px;margin-bottom:1.5rem"><rect width="400" height="200" fill="#f0f9ff"/><rect x="30" y="25" width="340" height="150" rx="10" fill="white" stroke="#7dd3fc" stroke-width="2"/><rect x="30" y="25" width="340" height="35" rx="10" fill="#0284c7"/><rect x="30" y="48" width="340" height="12" fill="#0284c7"/><text x="200" y="47" font-family="Arial" font-size="10" fill="white" text-anchor="middle" font-weight="bold">Στατιστικά ΕΕΑ — Έλεγχος Πινάκων</text><rect x="50" y="75" width="30" height="22" rx="4" fill="#0284c7"/><text x="65" y="90" font-family="Arial" font-size="9" fill="white" text-anchor="middle" font-weight="bold">1</text><text x="90" y="90" font-family="Arial" font-size="8" fill="#64748b">Συγκεντρωτικός</text><rect x="50" y="105" width="30" height="22" rx="4" fill="#e0f2fe" stroke="#7dd3fc" stroke-width="1.5"/><text x="65" y="120" font-family="Arial" font-size="9" fill="#0284c7" text-anchor="middle" font-weight="bold">2-9</text><text x="90" y="120" font-family="Arial" font-size="8" fill="#64748b">Επιμέρους πίνακες</text><rect x="280" y="75" width="70" height="55" rx="6" fill="#dcfce7" stroke="#86efac" stroke-width="1.5"/><text x="315" y="98" font-family="Arial" font-size="8" fill="#166534" text-anchor="middle">Σύγκριση</text><text x="315" y="118" font-family="Arial" font-size="18" text-anchor="middle">✓</text><line x1="200" y1="87" x2="280" y2="87" stroke="#7dd3fc" stroke-width="1.5" stroke-dasharray="4,3"/><line x1="200" y1="116" x2="280" y2="116" stroke="#7dd3fc" stroke-width="1.5" stroke-dasharray="4,3"/><polygon points="278,83 284,87 278,91" fill="#7dd3fc"/><polygon points="278,112 284,116 278,120" fill="#7dd3fc"/><text x="200" y="168" font-family="Arial" font-size="8" fill="#94a3b8" text-anchor="middle">Επιμέρους (2-9) → Συγκεντρωτικός (1)</text></svg>
